<svg width="1920" height="1080" viewBox="0 0 1920 1080" fill="none" xmlns="http://www.w3.org/2000/svg">
  <defs>
    <linearGradient id="bg" x1="0" y1="0" x2="1920" y2="1080" gradientUnits="userSpaceOnUse">
      <stop offset="0" stop-color="#0B1D51"/>
      <stop offset="0.45" stop-color="#173F8A"/>
      <stop offset="1" stop-color="#FF6A1A"/>
    </linearGradient>
    <radialGradient id="glowLeft" cx="0" cy="0" r="1" gradientUnits="userSpaceOnUse" gradientTransform="translate(460 500) rotate(15) scale(560 420)">
      <stop stop-color="#5CE1E6" stop-opacity="0.50"/>
      <stop offset="1" stop-color="#5CE1E6" stop-opacity="0"/>
    </radialGradient>
    <radialGradient id="glowRight" cx="0" cy="0" r="1" gradientUnits="userSpaceOnUse" gradientTransform="translate(1450 420) rotate(-10) scale(520 390)">
      <stop stop-color="#FFD36B" stop-opacity="0.45"/>
      <stop offset="1" stop-color="#FFD36B" stop-opacity="0"/>
    </radialGradient>
    <linearGradient id="panel" x1="480" y1="220" x2="1480" y2="820" gradientUnits="userSpaceOnUse">
      <stop offset="0" stop-color="#FFFFFF" stop-opacity="0.24"/>
      <stop offset="1" stop-color="#FFFFFF" stop-opacity="0.08"/>
    </linearGradient>
    <filter id="blurLarge" x="-100" y="-100" width="2120" height="1280" filterUnits="userSpaceOnUse" color-interpolation-filters="sRGB">
      <feGaussianBlur stdDeviation="30"/>
    </filter>
    <pattern id="grid" width="48" height="48" patternUnits="userSpaceOnUse">
      <path d="M48 0H0V48" stroke="#FFFFFF" stroke-opacity="0.08"/>
    </pattern>
  </defs>

  <rect width="1920" height="1080" fill="url(#bg)"/>
  <rect width="1920" height="1080" fill="url(#grid)"/>

  <g filter="url(#blurLarge)">
    <ellipse cx="420" cy="540" rx="360" ry="250" fill="url(#glowLeft)"/>
    <ellipse cx="1470" cy="420" rx="340" ry="220" fill="url(#glowRight)"/>
  </g>

  <rect x="420" y="190" width="1080" height="700" rx="38" fill="url(#panel)" stroke="#FFFFFF" stroke-opacity="0.24"/>
  <rect x="480" y="250" width="960" height="460" rx="26" fill="#0D2A66" fill-opacity="0.48" stroke="#7BE8FF" stroke-opacity="0.35"/>

  <rect x="550" y="300" width="370" height="180" rx="22" fill="#FFFFFF" fill-opacity="0.10"/>
  <rect x="1000" y="300" width="370" height="180" rx="22" fill="#FFFFFF" fill-opacity="0.10"/>
  <rect x="550" y="520" width="820" height="120" rx="18" fill="#FFFFFF" fill-opacity="0.10"/>

  <circle cx="640" cy="360" r="44" fill="#FF6A1A" fill-opacity="0.88"/>
  <circle cx="750" cy="360" r="44" fill="#35D7E2" fill-opacity="0.85"/>
  <circle cx="860" cy="360" r="44" fill="#FFD36B" fill-opacity="0.88"/>

  <path d="M1025 350C1060 318 1123 318 1158 350C1193 382 1193 438 1158 470" stroke="#A9F3FF" stroke-width="16" stroke-linecap="round"/>
  <path d="M1145 350C1180 318 1243 318 1278 350C1313 382 1313 438 1278 470" stroke="#FFBE94" stroke-width="16" stroke-linecap="round"/>

  <g opacity="0.8">
    <circle cx="360" cy="220" r="14" fill="#FFFFFF"/>
    <circle cx="1580" cy="290" r="10" fill="#FFFFFF"/>
    <circle cx="1530" cy="770" r="12" fill="#FFFFFF"/>
    <circle cx="270" cy="760" r="9" fill="#FFFFFF"/>
    <circle cx="1210" cy="150" r="8" fill="#FFFFFF"/>
  </g>

  <path d="M310 820C540 640 760 620 950 710" stroke="#FFFFFF" stroke-opacity="0.25" stroke-width="4"/>
  <path d="M960 710C1170 810 1390 800 1620 620" stroke="#FFFFFF" stroke-opacity="0.25" stroke-width="4"/>

  <rect x="630" y="760" width="660" height="22" rx="11" fill="#FFFFFF" fill-opacity="0.55"/>
  <rect x="760" y="796" width="400" height="14" rx="7" fill="#FFFFFF" fill-opacity="0.38"/>
</svg>
