<svg width="1920" height="1080" viewBox="0 0 1920 1080" fill="none" xmlns="http://www.w3.org/2000/svg">
  <defs>
    <linearGradient id="bg" x1="0" y1="0" x2="1920" y2="1080" gradientUnits="userSpaceOnUse">
      <stop offset="0" stop-color="#081423"/>
      <stop offset="0.55" stop-color="#0E2B4A"/>
      <stop offset="1" stop-color="#1B4C7A"/>
    </linearGradient>
    <radialGradient id="glowA" cx="0" cy="0" r="1" gradientUnits="userSpaceOnUse" gradientTransform="translate(520 340) rotate(18) scale(440 280)">
      <stop stop-color="#41E3FF" stop-opacity="0.45"/>
      <stop offset="1" stop-color="#41E3FF" stop-opacity="0"/>
    </radialGradient>
    <radialGradient id="glowB" cx="0" cy="0" r="1" gradientUnits="userSpaceOnUse" gradientTransform="translate(1400 430) rotate(-12) scale(500 340)">
      <stop stop-color="#FF9A3C" stop-opacity="0.35"/>
      <stop offset="1" stop-color="#FF9A3C" stop-opacity="0"/>
    </radialGradient>
    <linearGradient id="panel" x1="420" y1="300" x2="1500" y2="780" gradientUnits="userSpaceOnUse">
      <stop offset="0" stop-color="#FFFFFF" stop-opacity="0.18"/>
      <stop offset="1" stop-color="#FFFFFF" stop-opacity="0.06"/>
    </linearGradient>
    <filter id="blur" x="-100" y="-100" width="2120" height="1280" filterUnits="userSpaceOnUse">
      <feGaussianBlur stdDeviation="28"/>
    </filter>
    <pattern id="grid" width="56" height="56" patternUnits="userSpaceOnUse">
      <path d="M56 0H0V56" stroke="#FFFFFF" stroke-opacity="0.07"/>
    </pattern>
  </defs>

  <rect width="1920" height="1080" fill="url(#bg)"/>
  <rect width="1920" height="1080" fill="url(#grid)"/>
  <g filter="url(#blur)">
    <ellipse cx="540" cy="350" rx="340" ry="220" fill="url(#glowA)"/>
    <ellipse cx="1410" cy="470" rx="360" ry="240" fill="url(#glowB)"/>
  </g>

  <rect x="360" y="200" width="1200" height="680" rx="42" fill="url(#panel)" stroke="#FFFFFF" stroke-opacity="0.18"/>

  <g opacity="0.92">
    <rect x="460" y="260" width="320" height="220" rx="26" fill="#0B1D35" fill-opacity="0.52" stroke="#59E3FF" stroke-opacity="0.25"/>
    <rect x="810" y="260" width="320" height="220" rx="26" fill="#0B1D35" fill-opacity="0.52" stroke="#FFB15A" stroke-opacity="0.25"/>
    <rect x="1160" y="260" width="320" height="220" rx="26" fill="#0B1D35" fill-opacity="0.52" stroke="#8E7CFF" stroke-opacity="0.25"/>
  </g>

  <g opacity="0.95">
    <rect x="500" y="314" width="200" height="18" rx="9" fill="#59E3FF"/>
    <rect x="500" y="350" width="145" height="18" rx="9" fill="#FFFFFF" fill-opacity="0.55"/>
    <rect x="500" y="386" width="250" height="18" rx="9" fill="#FFB15A"/>

    <rect x="850" y="314" width="160" height="18" rx="9" fill="#FFB15A"/>
    <rect x="850" y="350" width="255" height="18" rx="9" fill="#FFFFFF" fill-opacity="0.55"/>
    <rect x="850" y="386" width="120" height="18" rx="9" fill="#59E3FF"/>

    <rect x="1200" y="314" width="245" height="18" rx="9" fill="#8E7CFF"/>
    <rect x="1200" y="350" width="175" height="18" rx="9" fill="#FFFFFF" fill-opacity="0.55"/>
    <rect x="1200" y="386" width="220" height="18" rx="9" fill="#FFB15A"/>
  </g>

  <g opacity="0.7">
    <circle cx="550" cy="560" r="14" fill="#59E3FF"/>
    <circle cx="690" cy="560" r="14" fill="#FFB15A"/>
    <circle cx="830" cy="560" r="14" fill="#8E7CFF"/>
    <circle cx="970" cy="560" r="14" fill="#59E3FF"/>
    <circle cx="1110" cy="560" r="14" fill="#FFB15A"/>
    <circle cx="1250" cy="560" r="14" fill="#8E7CFF"/>
  </g>

  <path d="M500 650C610 600 720 620 830 680C940 740 1060 740 1180 680C1300 620 1410 600 1480 630" stroke="#FFFFFF" stroke-opacity="0.25" stroke-width="6" stroke-linecap="round"/>
  <path d="M480 760C630 700 770 720 910 780C1050 840 1170 840 1300 790C1380 760 1440 735 1490 720" stroke="#41E3FF" stroke-opacity="0.35" stroke-width="8" stroke-linecap="round"/>

  <g opacity="0.95">
    <rect x="510" y="700" width="110" height="130" rx="16" fill="#0B1D35" fill-opacity="0.62" stroke="#59E3FF" stroke-opacity="0.2"/>
    <rect x="650" y="740" width="110" height="90" rx="16" fill="#0B1D35" fill-opacity="0.62" stroke="#FFB15A" stroke-opacity="0.2"/>
    <rect x="790" y="680" width="110" height="150" rx="16" fill="#0B1D35" fill-opacity="0.62" stroke="#8E7CFF" stroke-opacity="0.2"/>
    <rect x="930" y="720" width="110" height="110" rx="16" fill="#0B1D35" fill-opacity="0.62" stroke="#59E3FF" stroke-opacity="0.2"/>
    <rect x="1070" y="760" width="110" height="70" rx="16" fill="#0B1D35" fill-opacity="0.62" stroke="#FFB15A" stroke-opacity="0.2"/>
    <rect x="1210" y="690" width="110" height="140" rx="16" fill="#0B1D35" fill-opacity="0.62" stroke="#8E7CFF" stroke-opacity="0.2"/>
  </g>

  <g opacity="0.85">
    <circle cx="540" cy="730" r="18" fill="#59E3FF"/>
    <circle cx="680" cy="790" r="18" fill="#FFB15A"/>
    <circle cx="820" cy="710" r="18" fill="#8E7CFF"/>
    <circle cx="960" cy="770" r="18" fill="#59E3FF"/>
    <circle cx="1100" cy="820" r="18" fill="#FFB15A"/>
    <circle cx="1240" cy="745" r="18" fill="#8E7CFF"/>
  </g>

  <g opacity="0.45">
    <circle cx="420" cy="300" r="8" fill="#FFFFFF"/>
    <circle cx="1500" cy="270" r="8" fill="#FFFFFF"/>
    <circle cx="1540" cy="780" r="10" fill="#FFFFFF"/>
    <circle cx="360" cy="820" r="9" fill="#FFFFFF"/>
    <circle cx="960" cy="170" r="8" fill="#FFFFFF"/>
  </g>
</svg>
